<?xml version="1.0" standalone="no"?>
<!DOCTYPE svg PUBLIC "-//W3C//DTD SVG 20010904//EN"
 "http://www.w3.org/TR/2001/REC-SVG-20010904/DTD/svg10.dtd">
<svg version="1.0" xmlns="http://www.w3.org/2000/svg"
 width="832.000000pt" height="832.000000pt" viewBox="0 0 832.000000 832.000000"
 preserveAspectRatio="xMidYMid meet">
<metadata>
Created by potrace 1.14, written by Peter Selinger 2001-2017
</metadata>
<g transform="translate(0.000000,832.000000) scale(0.100000,-0.100000)"
fill="#000000" stroke="none">
<path d="M4144 7976 c-68 -131 -90 -172 -96 -174 -5 -2 -8 -12 -8 -22 0 -10
-3 -20 -7 -22 -5 -1 -21 -28 -36 -58 -16 -30 -50 -95 -75 -145 -26 -49 -49
-92 -52 -95 -3 -3 -17 -30 -32 -60 -16 -30 -32 -62 -37 -70 -6 -8 -51 -94
-102 -190 -50 -96 -109 -206 -129 -245 -21 -38 -58 -108 -82 -155 -25 -47 -67
-125 -93 -175 -79 -149 -108 -204 -180 -340 -37 -71 -71 -132 -74 -135 -3 -3
-25 -43 -49 -90 -23 -47 -59 -116 -80 -155 -50 -93 -139 -259 -197 -370 -129
-244 -211 -397 -260 -486 l-42 -77 126 -63 c69 -34 128 -66 129 -71 2 -4 9 -8
16 -8 13 0 269 -167 301 -196 11 -11 37 -32 57 -47 59 -44 299 -287 284 -287
-3 0 6 -12 20 -27 14 -15 43 -54 65 -88 21 -33 46 -69 54 -79 49 -65 195 -399
211 -485 3 -14 7 -28 10 -33 3 -5 8 -21 10 -36 3 -15 9 -44 15 -65 6 -21 12
-52 14 -70 3 -18 7 -43 10 -57 11 -53 14 -77 19 -137 3 -34 6 -65 7 -70 6 -32
2 -33 -427 -32 -234 0 -428 -2 -431 -5 -3 -3 -14 -1 -24 5 -13 6 -25 6 -38 0
-10 -6 -21 -8 -24 -5 -4 5 -379 8 -402 4 -6 -2 -12 -2 -15 -1 -3 1 -205 2
-450 3 -558 2 -518 14 -621 -187 -29 -55 -56 -101 -60 -103 -5 -2 -9 -12 -9
-22 0 -9 -7 -23 -15 -30 -9 -7 -13 -15 -10 -18 3 -3 0 -11 -5 -17 -11 -13 -20
-30 -130 -240 -40 -77 -78 -146 -83 -154 -6 -7 -12 -18 -13 -25 -1 -6 -16 -35
-33 -64 -17 -29 -31 -56 -31 -59 0 -3 -13 -27 -28 -52 -15 -25 -34 -62 -42
-81 -8 -19 -17 -37 -20 -40 -4 -3 -38 -66 -77 -140 -39 -74 -84 -160 -101
-190 -16 -30 -51 -95 -77 -145 -26 -49 -52 -94 -56 -99 -5 -6 -9 -18 -9 -28 0
-10 -3 -18 -7 -18 -5 0 -39 -62 -78 -138 -38 -75 -72 -139 -75 -142 -5 -5 -31
-54 -88 -165 -20 -38 -44 -82 -55 -97 -10 -16 -15 -28 -12 -28 3 0 -2 -12 -12
-28 -11 -15 -38 -63 -60 -107 -22 -44 -61 -119 -86 -167 -38 -72 -43 -88 -29
-88 9 0 156 -1 327 -2 280 -1 313 1 344 17 38 19 67 49 77 80 4 11 10 22 14
25 6 5 92 171 198 385 25 50 53 102 63 116 10 14 16 29 12 33 -3 3 -1 6 5 6 7
0 11 3 10 8 -2 7 23 63 32 72 3 3 26 46 51 95 25 50 99 194 165 320 135 262
189 368 325 633 212 412 221 428 269 453 20 11 204 14 947 14 603 1 926 4 933
11 19 19 26 101 24 284 -2 179 -4 207 -21 335 -4 33 -8 65 -8 70 -4 32 -44
206 -56 235 -5 14 -11 34 -13 45 -4 19 -26 83 -48 135 -6 14 -14 34 -18 45
-10 25 -59 125 -92 186 -103 192 -291 412 -532 624 -65 58 -68 62 -63 98 5 35
29 87 97 212 15 28 67 127 115 220 123 238 144 276 156 292 6 7 8 13 4 13 -4
0 -3 6 3 13 5 6 38 66 72 132 34 66 67 126 72 133 6 6 7 12 4 12 -4 0 1 12 11
28 10 15 41 72 68 127 28 55 53 102 58 103 4 2 7 12 7 22 0 10 3 20 8 22 4 2
29 46 55 98 27 52 74 145 106 205 31 61 98 190 149 287 l92 178 23 -38 c40
-63 71 -120 167 -307 51 -99 127 -245 168 -325 41 -80 107 -208 147 -285 68
-132 122 -236 295 -570 40 -77 103 -198 140 -270 37 -71 96 -184 130 -250 33
-66 66 -125 72 -132 6 -7 8 -13 5 -13 -3 0 16 -39 42 -88 25 -48 66 -128 91
-177 25 -50 47 -92 50 -95 3 -3 29 -50 56 -105 28 -55 89 -174 136 -265 47
-91 111 -214 142 -274 31 -60 61 -115 67 -122 6 -7 12 -19 13 -26 1 -8 13 -34
27 -58 14 -25 45 -85 70 -135 24 -49 47 -94 52 -100 4 -5 31 -57 61 -115 29
-58 88 -172 131 -255 43 -82 116 -224 163 -315 46 -91 100 -194 119 -230 19
-36 82 -157 140 -270 58 -113 110 -211 115 -218 6 -6 7 -12 2 -12 -5 0 -4 -4
1 -8 10 -6 46 -75 182 -342 26 -52 53 -98 58 -102 7 -5 7 -8 0 -8 -7 0 -7 -3
0 -8 6 -4 46 -77 89 -162 124 -242 133 -260 146 -275 7 -8 9 -15 5 -15 -4 0
-3 -6 2 -13 6 -6 47 -84 93 -172 109 -210 115 -220 158 -247 36 -22 42 -23
362 -24 179 -1 329 1 333 3 4 3 -1 19 -12 36 -10 18 -42 77 -71 132 -29 55
-83 156 -120 225 -37 69 -93 175 -125 235 -32 61 -73 137 -91 170 -18 33 -47
89 -66 125 -19 36 -56 106 -83 155 -26 50 -73 137 -103 195 -30 58 -59 106
-64 108 -4 2 -8 9 -8 15 0 12 -41 98 -51 107 -3 3 -18 30 -33 60 -16 30 -47
89 -69 130 -22 41 -57 107 -77 145 -20 39 -56 106 -80 150 -23 44 -52 98 -64
120 -11 22 -25 43 -31 47 -5 4 -6 8 -2 8 5 0 0 15 -11 33 -20 33 -55 96 -137
252 -26 50 -64 122 -85 160 -20 39 -60 113 -87 165 -70 132 -120 225 -155 290
-45 83 -125 236 -169 319 -21 41 -43 79 -49 85 -5 5 -10 18 -10 28 0 10 -4 18
-10 18 -5 0 -10 6 -10 14 0 8 -7 22 -16 30 -8 9 -12 16 -8 16 3 0 2 6 -3 13
-11 13 -95 170 -147 272 -17 33 -33 62 -36 65 -3 3 -21 37 -41 75 -20 39 -58
111 -84 160 -26 50 -68 128 -93 175 -24 47 -49 91 -54 98 -6 6 -7 12 -2 12 5
0 5 4 -1 8 -5 4 -20 25 -31 47 -52 97 -107 202 -193 361 -50 94 -91 176 -91
182 0 5 -3 12 -7 14 -5 2 -21 28 -36 58 -28 53 -75 143 -168 315 -115 215
-142 266 -181 345 -24 47 -46 87 -49 90 -3 3 -39 68 -79 145 -40 77 -90 172
-111 210 -77 144 -140 262 -176 335 -21 41 -40 77 -43 80 -6 6 -10 13 -98 180
-39 74 -91 173 -117 220 -25 47 -53 101 -63 120 -9 19 -20 37 -24 38 -5 2 -8
8 -8 14 0 9 -181 354 -205 389 -9 15 -12 15 -21 -5z"/>
</g>
</svg>
