<svg width="653" height="433" viewBox="0 0 653 433" fill="none" xmlns="http://www.w3.org/2000/svg">
<g opacity="0.2">
<path d="M642.663 118.693C644.318 118.324 645.606 117.032 646.341 115.556C647.445 113.711 648.181 111.866 648.733 109.837C649.469 107.623 649.836 105.409 650.204 103.195C650.388 102.088 650.388 100.797 650.204 99.6901C650.02 99.1366 649.836 98.3987 649.469 97.8452C649.101 97.4762 648.733 97.1072 648.365 96.9227C647.261 94.7088 644.686 93.4174 642.663 92.126C639.168 89.9121 636.225 86.9602 633.465 84.0084C629.051 79.2116 623.533 72.7544 619.302 67.7732C615.991 63.8989 612.864 59.8401 610.105 55.5968C608.817 53.5674 607.529 51.3535 606.61 49.1396C605.506 46.5567 604.402 43.0514 603.483 40.2841C602.747 38.0702 601.827 35.6718 600.54 33.6424C599.068 31.244 596.861 29.0301 594.837 27.0007L588.951 21.466C586.192 18.8831 583.433 15.3778 581.041 12.4259C579.386 10.3965 577.547 8.36713 575.339 6.89121C573.132 5.41528 570.741 4.30834 568.165 3.75486C562.095 2.27894 555.473 2.27894 549.219 3.0169C545.54 3.38588 541.862 4.30834 538.367 5.59977C534.504 7.0757 530.825 9.1051 527.514 11.5035C524.571 9.84306 521.444 8.55163 518.317 7.81366C516.293 7.44468 514.454 7.26019 512.431 7.44468C511.327 7.62917 510.407 7.81366 509.487 8.55163C508.936 8.92061 508.384 9.65857 508.2 10.3965C508.016 11.5035 508.016 12.6104 508.2 13.5329C508.936 17.0382 510.775 20.359 512.247 23.6799C508.568 26.6317 504.705 29.5836 500.474 31.7975C495.508 34.3803 487.598 36.7787 482.264 38.6236C466.629 44.1584 443.084 53.7519 427.265 58.5486C424.689 59.2866 422.114 60.0246 419.539 60.3936C416.964 60.7625 414.389 60.947 411.813 60.7625C401.145 60.2091 386.981 58.1797 376.496 57.8107C369.322 57.4417 361.965 57.4417 354.791 58.1797C346.329 58.9176 332.534 61.5005 323.888 62.9764C316.163 64.2679 308.069 65.3748 300.343 65.9283C292.25 66.4817 283.421 66.8507 275.327 66.8507C272.568 66.8507 264.658 66.8507 261.715 66.8507L123.39 63.3454C114.376 62.9764 94.1427 62.2385 85.1294 61.685C81.4505 61.5005 77.4038 61.5005 73.9088 61.5005C70.046 61.685 65.9993 62.054 62.1365 62.7919C52.2035 64.8213 42.8224 70.1716 35.6486 77.1822C30.4981 82.1635 26.0835 88.2517 22.7725 94.7089C18.9097 102.273 16.1505 110.575 14.8629 119.062C14.3111 123.305 13.9432 127.733 13.9432 131.976C13.9432 134.19 13.9432 137.142 13.9432 139.356C14.679 160.019 14.679 188.061 16.1505 208.355C17.0703 224.037 19.2776 243.04 16.8863 258.721C16.3345 261.858 15.7826 265.178 14.8629 268.315C13.9432 271.82 12.4717 275.141 11.1841 278.462C10.0804 281.229 7.50518 286.395 6.76941 289.162C6.58546 289.531 6.58546 290.085 6.58546 290.454L6.76941 290.638C7.13729 290.823 7.50518 290.638 7.87307 290.638C8.24096 290.638 8.60884 290.638 8.79279 290.823C8.79279 291.192 8.79279 291.745 8.60884 292.114C8.24096 294.143 6.40152 298.756 5.66575 300.785C4.37814 304.475 3.27448 308.349 2.72265 312.039C2.35476 315.36 2.5387 318.865 3.09053 322.186C3.45842 323.846 3.82631 325.507 4.74603 327.167C5.11391 327.721 5.4818 328.459 6.03363 328.828C6.40152 329.012 6.76941 328.828 7.32124 328.643C7.50518 328.643 7.87307 328.459 8.05701 328.643C8.4249 329.197 8.60884 329.935 8.79279 330.488C10.0804 335.838 10.2643 341.927 12.2877 347.092C12.8395 348.199 13.3914 349.491 14.1272 350.413C14.3111 350.598 14.679 350.967 15.0469 351.151C15.2308 350.782 15.4148 350.413 15.4148 350.044C15.9666 347.646 16.1505 343.403 16.3345 340.82C16.5184 338.421 16.8863 335.838 17.4381 333.624C17.806 331.78 18.5418 330.119 19.2776 328.459C20.5652 325.507 22.5886 322.186 23.6922 319.05C24.428 317.205 24.7959 315.175 24.7959 313.146C24.9798 306.689 23.5083 299.678 23.3243 293.406C23.3243 291.376 23.5083 289.162 23.8762 287.133C24.428 283.996 25.7156 279.938 26.4514 276.801C27.1872 273.849 27.555 270.898 27.3711 267.761C27.3711 263.887 26.0835 255.769 25.5317 252.08C24.9798 246.914 24.428 241.195 24.2441 236.029C23.1404 214.074 23.1404 191.013 24.0601 169.059C24.6119 155.591 26.4514 141.385 28.4748 128.102C29.3945 139.356 31.7857 150.61 35.4646 161.31C38.0398 169.059 42.0866 177.361 44.6618 184.925C45.7655 188.246 46.3173 191.751 46.5012 195.256C46.6852 197.839 46.6852 201.345 47.0531 203.743C47.421 206.879 48.1567 210.016 48.8925 212.967C50.3641 218.502 52.9393 224.59 53.675 230.125C54.4108 235.66 53.3072 241.195 52.0196 246.729C49.8122 255.954 47.6049 265.732 43.926 274.587C41.9026 279.384 38.5917 284.734 35.8325 289.162C33.8091 292.299 32.1536 295.804 31.05 299.309C29.9463 302.815 29.3945 306.689 29.9463 310.379C30.3142 312.777 31.2339 316.651 31.7857 319.234C32.3376 321.448 32.7055 323.846 33.0734 326.245C34.5449 338.79 32.5215 351.52 29.5784 363.512L23.3243 388.234C22.7725 390.448 22.2207 392.846 22.4046 395.244C22.5886 396.536 22.9564 397.827 23.5083 398.934C24.0601 400.041 24.7959 400.964 25.8995 401.702C26.4514 402.255 27.3711 402.44 28.1069 402.624C29.2105 402.809 30.3142 402.809 31.4179 403.178C32.7055 403.731 33.4412 404.838 33.9931 405.945C37.1201 411.664 38.0398 419.413 40.4311 425.501C40.9829 426.792 41.7187 428.268 43.1903 429.006C43.926 429.375 44.8457 429.375 45.5815 429.375C47.9728 429.375 67.1029 429.375 68.9424 429.375C69.6781 429.375 70.4139 429.375 71.1497 429.191C71.8855 429.006 72.6212 428.822 73.357 428.453C74.0928 427.899 74.6446 426.977 74.8286 425.87C75.1964 424.578 75.1965 423.103 75.0125 421.811C74.8286 420.52 74.6446 419.044 73.9088 417.937C73.357 417.014 72.6212 416.092 71.8855 415.354C70.4139 413.878 68.0227 412.402 66.1832 411.111C64.1598 409.635 61.9525 407.974 60.1131 406.314C58.6415 404.838 57.17 403.362 56.0663 401.517C54.7787 399.303 53.675 396.905 52.9393 394.506C52.2035 391.924 51.6517 389.156 51.4677 386.573C50.9159 381.223 50.7319 375.135 50.548 369.785C50.548 359.822 50.7319 349.675 53.4911 340.082C55.6984 331.964 60.1131 322.555 63.608 314.806C65.6314 310.379 67.8387 305.028 70.23 300.785C71.8855 297.833 73.7249 295.066 76.1162 292.668C79.2432 289.162 82.9221 286.21 86.601 283.443C88.4404 285.288 90.6477 287.317 92.855 288.609C95.2463 290.269 98.7412 292.114 101.133 293.774C102.604 294.697 103.892 295.804 104.627 297.464C104.811 298.018 104.995 298.756 105.179 299.309C105.731 302.63 105.731 306.689 106.651 310.01C107.019 311.486 107.571 313.146 108.674 314.437C109.41 315.175 110.698 315.729 111.617 315.175C112.353 314.806 112.905 313.884 113.089 313.146C114.193 310.194 114.376 306.689 115.296 303.553C115.48 302.815 115.664 302.261 116.216 301.708C116.4 301.339 116.768 300.97 117.32 300.785C117.871 300.601 118.423 300.416 118.975 300.416C119.711 300.416 120.447 300.416 121.182 300.601C122.838 300.785 124.861 301.154 126.517 301.339C128.172 301.523 129.828 301.339 131.483 301.154C132.955 300.97 135.346 300.601 136.818 300.785C137.185 300.785 137.553 300.785 137.737 300.97C137.921 300.97 138.289 301.154 138.473 301.339C138.657 301.523 138.841 301.892 139.025 302.261C139.209 302.815 139.393 303.184 139.577 303.737C140.313 306.873 141.048 310.563 142.336 313.33C142.888 314.253 143.44 315.36 144.543 315.913C144.911 316.098 145.463 316.098 145.831 315.913C146.751 315.544 147.118 314.806 147.486 313.884C148.958 310.563 149.142 306.504 150.062 303.184C150.429 302.261 150.613 301.339 151.165 300.416C151.533 299.863 152.085 299.309 152.821 298.94C153.189 298.756 153.556 298.571 153.74 298.387C155.212 297.649 157.419 296.542 158.891 295.804C165.881 292.114 171.951 286.764 177.469 281.229C179.309 279.384 181.332 277.355 182.987 275.325C184.091 274.218 185.195 272.374 186.298 271.267C187.218 270.344 188.138 269.606 189.609 269.237C190.529 269.053 191.449 269.053 192.552 269.237C194.208 269.422 195.68 269.791 197.335 270.344C207.268 273.48 217.753 278.831 227.686 281.783C231.732 283.074 235.963 283.996 240.194 283.996C246.264 284.181 252.15 282.336 257.853 280.122C264.107 280.122 270.545 279.569 276.799 278.462C287.283 276.801 306.23 271.82 316.715 269.237C324.992 267.392 333.453 265.363 341.915 264.994C346.329 264.809 350.744 264.994 354.975 265.547C361.781 266.285 370.426 268.499 377.232 269.791C376.496 279.938 375.025 290.638 375.944 300.785C376.128 302.815 376.496 304.844 376.864 306.689C377.232 308.903 378.704 314.068 379.255 316.282C379.623 317.943 380.175 319.788 380.359 321.633C380.543 323.293 380.543 324.953 380.727 326.429C380.727 329.566 380.543 333.071 381.095 336.207C381.463 338.421 382.382 341.373 382.75 343.587C383.118 345.985 383.486 348.384 383.67 350.782C384.222 364.25 383.118 377.902 380.911 391.186C380.175 395.429 378.887 401.702 377.968 405.945C377.784 406.683 377.784 407.236 377.784 407.974C377.784 409.081 377.968 410.373 378.52 411.295C378.887 411.849 379.255 412.218 379.623 412.587C379.991 412.956 380.359 413.509 380.911 413.694C381.647 414.063 382.382 414.247 383.302 414.247C384.958 414.247 386.797 413.509 388.453 413.14C388.82 413.14 389.004 412.956 389.372 412.956C389.74 412.956 389.924 412.956 390.292 413.14C390.66 413.325 390.844 413.509 391.212 413.878C391.947 414.8 392.131 416.092 392.683 417.199C393.787 420.151 394.707 424.025 396.362 426.792C396.73 427.346 397.098 428.084 397.65 428.637C398.018 429.006 398.385 429.191 398.937 429.375C399.673 429.56 400.409 429.744 401.145 429.744H425.241C425.425 429.744 425.609 429.744 425.793 429.744C426.161 429.744 426.345 429.744 426.713 429.56C427.081 429.375 427.265 429.006 427.449 428.637C427.816 427.715 428 426.608 428.184 425.685C428.368 424.025 428.368 422.18 428.184 420.52C428 419.597 427.816 418.675 427.265 417.752C426.713 416.645 425.977 415.723 425.241 414.985C422.666 412.402 419.539 410.004 416.412 407.974C414.756 406.867 411.997 405.207 410.526 404.1C409.238 403.178 408.134 402.071 407.399 400.779C406.663 399.488 406.295 398.196 405.927 396.905C404.64 391.555 404.088 385.651 403.72 380.301C402.984 370.707 402.616 360.929 403.168 351.336C403.536 346.17 403.904 340.82 405.375 335.838C406.111 333.256 407.399 330.304 408.134 327.905C409.054 325.507 409.606 322.924 410.158 320.341C411.262 314.437 412.549 304.29 413.837 298.571C415.492 291.007 417.516 283.074 420.459 275.879C424.505 275.694 428.736 275.325 432.599 273.849C435.358 272.743 437.933 270.898 440.141 268.684C442.716 266.101 445.659 261.489 447.866 258.352C448.97 256.692 450.258 255.031 451.729 253.371C453.017 251.895 455.408 249.681 456.696 248.39C459.271 245.807 461.662 243.04 463.502 239.903C466.629 234.553 468.652 228.649 470.675 222.746C472.331 217.58 476.562 203.743 478.585 198.762C479.137 197.286 479.873 195.81 480.424 194.518C482.08 191.198 485.023 188.246 487.414 185.478C489.989 182.342 492.932 178.468 495.508 175.147C500.106 168.874 524.019 136.219 527.882 130.5C530.825 126.072 533.768 121.46 536.159 116.663C540.758 117.77 545.54 118.324 550.139 118.693C555.657 119.062 564.487 118.877 570.189 118.877C573.684 118.877 577.547 119.062 581.041 119.246C590.974 120.169 601.275 122.567 610.84 125.334C613.783 126.072 616.727 126.81 619.67 126.257C622.429 125.703 625.004 124.227 627.211 122.382C629.971 122.567 632.73 122.567 635.489 121.829C636.776 121.645 637.88 121.276 638.984 120.538C641.007 120.169 641.927 119.615 642.663 118.693Z" stroke="#F1F6FF" stroke-width="3" stroke-miterlimit="10" stroke-linecap="round" stroke-linejoin="round"/>
<path d="M217.79 65.6787C219.997 70.4755 222.757 75.6412 227.907 78.0396C231.034 79.3311 234.529 79.5156 238.024 79.3311C242.438 79.1466 247.957 78.7776 252.371 79.5156C255.131 79.8845 257.89 80.807 260.465 82.0984C266.903 85.4193 272.053 90.954 274.997 97.5957C276.1 99.994 276.836 102.577 276.836 105.16C277.02 106.82 276.836 108.665 276.1 110.141C274.997 112.908 272.789 115.122 270.03 116.414C268.558 117.152 266.719 117.521 265.064 117.705C262.672 118.074 259.913 118.259 257.522 119.181C256.234 119.735 255.131 120.288 254.027 121.21C252.739 122.502 251.636 123.978 250.716 125.454C249.428 127.852 248.509 130.435 247.773 133.202C247.221 135.416 246.853 137.815 246.853 140.213C246.853 141.873 247.037 143.534 247.405 145.01C247.957 147.593 249.612 149.991 250.9 152.389C251.82 153.865 252.555 155.526 252.739 157.371C252.923 158.293 252.923 159.216 252.739 160.323C252.555 162.905 251.82 166.411 251.268 168.994C250.716 172.499 249.98 176.373 251.636 179.694C252.555 181.539 254.027 183.015 255.866 183.937C257.522 184.86 259.361 185.044 261.201 185.044C263.04 184.86 264.696 184.122 266.351 183.384C269.478 181.908 272.605 179.51 275.732 178.218C276.652 177.849 277.756 177.665 278.675 178.034C279.227 178.218 279.779 178.587 280.147 179.141C280.699 180.063 281.067 181.17 281.251 182.092C281.435 183.753 281.067 185.413 280.331 186.889C279.595 188.181 278.675 189.288 277.756 190.395C276.284 192.055 274.445 193.346 272.605 194.638C266.535 199.066 259.545 203.678 254.579 209.582C253.291 211.242 252.004 213.087 251.452 215.301C251.268 216.408 251.268 217.515 251.636 218.437C252.004 219.544 252.555 220.467 253.291 221.205C254.579 222.496 256.05 223.234 257.706 223.787C260.281 224.71 263.224 224.894 265.983 224.341C267.639 223.972 269.11 223.603 270.398 222.68C272.789 221.389 274.629 219.544 276.468 217.515C279.227 214.378 281.986 210.135 284.562 206.814C286.401 204.416 288.976 202.017 290.632 199.619C291.551 198.328 292.287 196.852 292.839 195.376C294.862 189.841 295.966 183.568 299.093 178.587C299.645 177.665 300.565 176.742 301.3 176.004C302.404 175.082 303.692 174.344 305.163 174.159C305.899 173.975 306.635 173.975 307.371 174.344C307.922 174.528 308.474 175.082 308.658 175.635C308.842 176.189 309.026 176.742 309.026 177.296C309.026 178.034 309.026 178.772 308.842 179.325C308.474 181.355 307.738 184.122 307.371 186.151C307.003 187.996 306.451 190.026 306.635 192.055C306.635 192.977 306.819 193.9 307.187 194.638C308.106 196.298 309.946 197.405 311.601 198.143C313.441 199.066 315.648 199.988 317.304 201.095C319.695 202.94 320.798 206.261 321.902 208.844C322.638 210.504 323.558 212.349 325.213 213.456C326.317 214.194 327.604 214.378 328.892 214.378C330.731 214.378 332.571 213.825 334.226 212.902C337.721 211.058 339.929 207.552 340.848 203.862C341.768 200.542 341.768 196.852 340.297 193.715C339.377 191.502 337.905 189.472 336.986 187.074C336.618 185.967 336.434 184.675 336.802 183.384C337.169 182.092 337.721 180.986 338.273 179.694C339.929 176.742 342.504 173.421 344.159 170.47C344.895 169.178 345.447 167.702 345.631 166.226C345.999 162.536 343.607 159.4 341.952 156.264C341.216 154.788 340.297 153.127 340.113 151.467C339.377 146.117 343.056 141.136 345.447 136.708C346.918 134.125 348.206 131.357 348.758 128.406C349.31 125.823 349.494 123.24 349.494 120.473C349.494 117.521 349.126 114.569 348.39 111.617C347.654 108.665 346.367 105.529 344.527 103.13C341.4 99.2561 336.618 96.8577 332.387 94.0903C331.099 93.1679 329.628 92.2454 328.34 91.1385C327.053 90.0315 325.949 88.7401 324.845 87.4487C322.638 84.6813 320.982 81.3605 319.879 78.0396C318.407 73.6118 317.671 68.8151 317.855 64.0183" stroke="#F1F6FF" stroke-width="1.5" stroke-miterlimit="10" stroke-linecap="round" stroke-linejoin="round"/>
<path d="M14.5322 169.732C15.0841 171.576 16.0038 173.421 17.1074 175.082C17.8432 176.004 18.579 176.742 19.6826 177.111C20.4184 177.296 21.1542 177.296 21.89 177.111C23.1776 176.742 24.4652 175.82 25.5688 175.082" stroke="#F1F6FF" stroke-width="1.5" stroke-miterlimit="10" stroke-linecap="round" stroke-linejoin="round"/>
<path d="M46.5381 186.52C48.9294 184.306 51.6885 181.908 54.8156 180.801C56.2871 180.432 57.7587 180.248 59.2302 180.248C62.1733 180.248 65.3003 180.432 68.0595 179.51C70.4508 178.772 72.2902 176.927 73.7617 175.082C76.7048 171.208 78.5443 166.411 79.6479 161.798C80.1998 159.4 80.7516 155.895 81.4874 153.312C81.8553 152.205 82.2232 150.914 82.9589 149.807C84.7984 146.67 89.0291 146.301 92.3401 147.039C94.5474 147.408 96.5708 148.331 98.5941 149.253C100.985 150.36 103.561 152.02 106.136 152.574C107.24 152.758 108.343 152.943 109.447 152.758C110.918 152.574 112.39 151.836 113.494 150.914C115.149 149.622 116.437 147.777 117.172 145.748C117.54 144.272 117.724 142.796 117.724 141.136C117.356 134.678 114.229 127.852 114.413 121.21C114.413 118.812 114.965 116.414 115.885 114.015C117.172 110.51 119.564 107.005 120.667 103.499C121.035 102.208 121.403 100.732 121.219 99.2561C121.035 98.1491 120.667 96.8577 119.932 95.9352C118.092 93.1679 114.965 90.585 112.39 88.1866C110.734 86.5262 108.895 84.8658 107.791 82.6519C106.504 80.2535 106.136 77.3017 105.032 74.7188C104.112 72.6894 103.009 70.8445 101.721 68.9996C99.8818 66.4167 97.8584 64.0183 95.651 61.8044" stroke="#F1F6FF" stroke-width="1.5" stroke-miterlimit="10" stroke-linecap="round" stroke-linejoin="round"/>
<path d="M381.5 58.1146C379.844 59.9595 378.373 61.9889 377.269 64.2028C376.533 65.6787 375.982 67.3392 375.798 69.1841C375.614 71.7669 376.35 74.3498 376.717 76.9327C376.901 78.5931 376.901 80.2535 376.166 81.7294C375.614 83.2054 374.694 84.3123 373.774 85.6038C371.751 88.1866 369.176 90.7695 368.072 94.0903C366.968 97.5957 368.072 101.654 370.463 104.422C372.303 106.451 374.878 107.558 377.453 108.296C381.5 109.588 386.282 110.695 389.41 113.831C391.985 116.414 393.824 119.919 394.56 123.424C395.112 126.376 395.112 129.697 393.64 132.464C392.353 134.678 390.145 135.97 388.122 137.261L384.443 139.291C382.052 140.767 379.661 142.242 378.005 144.641C376.533 146.67 375.614 149.069 375.246 151.467C374.694 154.234 374.878 157.002 375.43 159.585C375.798 161.245 376.717 162.905 377.637 164.381C379.477 166.964 382.236 169.178 384.075 171.945C384.811 172.868 385.363 173.975 385.731 175.082C386.099 176.189 386.283 177.48 386.466 178.587C386.834 182.461 386.099 186.336 385.363 190.026C383.339 198.512 379.844 206.999 376.35 214.747C375.614 216.777 374.694 218.806 374.694 220.836C374.51 223.418 375.246 226.001 376.35 228.215C377.453 230.429 378.925 232.458 381.132 233.565C382.604 234.303 384.627 234.672 386.282 235.041C387.386 235.226 388.49 235.595 389.41 236.333C389.961 236.702 390.329 237.255 390.697 237.809C391.433 238.916 392.353 241.13 392.904 242.421C393.64 243.897 394.376 245.373 395.48 246.48C396.215 247.218 397.319 247.771 398.239 248.14C399.894 248.694 401.734 248.694 403.573 248.325C405.413 247.956 407.068 247.218 408.54 245.926C410.011 244.45 410.931 242.421 411.299 240.392C412.403 235.595 412.219 229.876 414.242 225.263C415.346 222.865 416.817 220.836 418.473 218.991C420.496 216.592 423.071 214.009 424.727 211.242C425.462 210.135 425.83 208.844 426.198 207.552C426.75 205.338 427.118 202.755 427.854 200.726C428.222 199.435 428.957 198.328 430.061 197.405C430.981 196.667 432.084 196.483 433.188 196.298C434.66 196.114 436.315 196.483 437.787 197.221C438.89 197.774 439.81 198.697 440.362 199.804C440.73 200.726 440.914 201.649 441.098 202.755C441.282 206.076 440.178 209.397 439.258 212.533C437.971 216.592 435.763 222.68 435.395 226.924C435.395 228.031 435.212 229.138 435.579 230.245C435.763 230.983 436.315 231.536 436.867 232.089C437.603 232.643 438.339 233.012 439.258 233.196C440.914 233.565 442.753 233.381 444.409 233.012C446.984 232.458 449.375 231.352 451.399 229.691C454.158 227.477 455.997 224.525 457.469 221.389C459.492 216.961 460.596 212.349 461.699 207.552C463.355 199.435 465.01 188.734 466.85 180.801C467.77 176.558 469.057 172.499 470.713 168.44C472.368 164.935 474.392 161.245 477.703 159.031C479.358 157.924 481.197 157.371 483.037 157.002C485.244 156.448 488.187 155.895 490.395 154.972C491.866 154.419 493.154 153.681 494.257 152.574C496.649 150.545 498.488 147.777 499.96 145.01C502.351 140.582 504.006 135.601 505.11 130.804C506.03 126.93 506.398 122.871 506.03 118.997C505.846 116.045 505.294 112.908 505.294 109.957C505.294 108.112 505.662 106.267 506.398 104.422C507.133 102.392 508.237 100.363 509.709 98.8871C510.628 97.7801 511.916 96.8577 513.388 96.3042C515.779 95.3818 518.354 95.5663 520.929 96.1197C527.183 97.5957 533.437 100.916 539.691 102.392C541.899 102.946 544.106 103.315 546.313 103.13C547.969 103.13 549.624 102.577 550.912 101.839C552.752 100.732 554.591 99.0716 556.43 97.9646C557.534 97.2267 558.822 96.8577 560.109 96.6732C561.213 96.4887 562.133 96.4887 563.236 96.6732C565.076 96.8577 567.651 97.4112 569.674 97.7802C570.962 97.9646 572.433 98.1491 573.721 98.1491C574.457 98.1491 575.377 97.9646 576.112 97.7802C576.848 97.4112 577.584 96.8577 578.136 96.1197C579.607 94.4593 580.527 91.692 581.631 89.6626C582.366 88.1866 583.102 86.7107 584.39 85.4193C585.677 84.1278 587.149 83.2054 588.621 82.4674C591.38 80.9915 594.875 79.7 596.162 76.7482C596.714 75.4568 597.082 73.9808 596.898 72.5049C596.898 70.8445 596.53 69.3686 595.794 67.8926C595.242 66.7857 594.691 65.8632 593.771 65.1253C592.667 64.0183 591.38 63.2804 589.908 62.5424C587.149 61.251 584.022 60.144 582.366 57.5611C580.711 55.1628 579.791 51.8419 578.504 49.0746C577.768 47.4142 576.848 45.9382 575.561 44.8313C572.617 41.6949 568.203 39.6655 565.076 36.7137C564.156 35.7912 563.236 34.6843 562.684 33.5773C561.213 30.441 561.213 26.5667 560.477 23.2459C560.109 21.7699 559.741 20.4785 559.006 19.1871C558.086 17.3421 556.798 15.6817 555.327 14.3903C553.303 12.3609 550.912 10.7005 548.521 9.22455C545.946 7.74862 543.186 6.45718 540.427 5.53473" stroke="#F1F6FF" stroke-width="1.5" stroke-miterlimit="10" stroke-linecap="round" stroke-linejoin="round"/>
<path d="M642.516 118.812C641.78 119.55 640.86 120.288 639.757 120.841C638.653 121.395 637.366 121.764 636.262 122.133C633.503 122.686 630.744 122.686 627.984 122.686" stroke="#F1F6FF" stroke-width="2.25" stroke-miterlimit="10" stroke-linecap="round" stroke-linejoin="round"/>
<path d="M527.551 11.8074C531.046 9.40904 534.725 7.19515 538.771 5.71923C542.45 4.42779 546.313 3.50534 550.176 3.13635C556.246 2.58288 562.5 2.58288 568.386 4.05881C570.962 4.79677 573.537 5.71923 575.928 7.37964C577.951 8.85557 579.791 10.885 581.262 12.7299C582.366 14.2058 584.757 17.1577 586.045 18.6336C586.965 19.7405 588.068 20.8475 589.172 21.9544L595.058 27.4891C597.082 29.5185 599.105 31.7324 600.76 34.1308C602.048 36.1602 602.968 38.3741 603.703 40.7725C604.623 43.5399 605.543 47.0452 606.831 49.628C607.75 51.8419 609.038 54.0558 610.325 56.0852C613.085 60.3285 616.396 64.3873 619.523 68.2616C623.753 73.2429 629.272 79.7001 633.686 84.4968C636.445 87.4487 639.572 90.4005 642.883 92.6144C644.907 93.9059 647.482 95.1973 648.586 97.4112" stroke="#F1F6FF" stroke-width="2.25" stroke-miterlimit="10" stroke-linecap="round" stroke-linejoin="round"/>
<path d="M628.721 104.791C629.089 103.684 629.457 102.392 630.192 101.47C630.56 100.916 631.112 100.363 631.848 100.179C632.767 99.8095 633.871 99.8095 634.975 99.8095C636.446 99.994 637.918 100.179 639.206 100.916C639.941 101.285 640.493 101.654 640.861 102.208C641.045 102.577 641.229 102.946 641.229 103.499C641.229 104.422 640.861 105.344 640.677 106.082V106.267" stroke="#F1F6FF" stroke-width="2.25" stroke-miterlimit="10" stroke-linecap="round" stroke-linejoin="round"/>
<path d="M633.686 118.074C633.318 118.074 630.743 117.705 630.375 117.705C628.536 117.521 626.88 117.152 625.409 116.045C624.489 115.307 623.569 114.384 623.018 113.277C622.098 111.617 621.546 109.588 621.546 107.558C621.362 105.344 621.73 103.13 622.65 101.101C623.201 99.8096 623.937 98.3336 625.041 97.4112C627.064 95.7508 629.823 95.9352 632.399 96.1197C634.238 96.3042 636.813 96.8577 638.653 96.8577C640.308 96.8577 643.067 96.8577 644.723 96.6732C645.643 96.6732 646.562 96.6732 647.482 96.8577C648.034 96.8577 648.402 97.0422 648.954 97.4112C649.505 97.7802 649.873 98.5181 650.241 99.0716C650.425 99.8096 650.425 100.363 650.425 101.101C650.425 102.208 650.241 103.315 650.241 104.422C649.689 107.927 648.77 111.432 647.114 114.753C646.378 116.229 645.459 117.521 643.987 118.259C643.251 118.628 642.332 118.812 641.412 118.997C638.837 119.181 636.078 118.443 633.686 118.074Z" stroke="#F1F6FF" stroke-width="2.25" stroke-miterlimit="10" stroke-linecap="round" stroke-linejoin="round"/>
<path d="M51.8731 82.2829C46.3548 88.0021 41.0204 94.0903 36.9737 100.917C33.8466 106.082 31.6393 111.617 30.5356 117.521C29.6159 122.317 29.7999 127.114 30.3517 131.911C31.0875 138.184 32.1911 144.825 33.6627 150.914C34.9503 155.895 36.4218 161.061 38.2613 165.857C40.1007 171.023 43.4117 178.403 45.4351 183.568C46.1708 185.598 46.9066 187.812 47.4584 189.841C47.8263 191.87 48.1942 194.084 48.1942 196.298C48.3782 198.881 48.3782 202.386 48.7461 204.785C49.1139 207.921 49.8497 211.058 50.5855 214.009C52.057 219.544 54.6323 225.632 55.368 231.167C56.1038 236.702 55.0001 242.237 53.7125 247.771C51.5052 256.996 49.2979 266.774 45.619 275.629C43.5956 280.426 40.2846 285.776 37.5255 290.204C35.5021 293.34 33.8466 296.846 32.743 300.351C31.6393 303.856 31.0875 307.731 31.6393 311.421C32.0072 313.819 32.9269 317.693 33.4787 320.276C34.0306 322.49 34.3984 324.888 34.7663 327.287C36.2379 339.832 34.2145 352.562 31.2714 364.554L25.0173 389.276C24.4655 391.49 23.9137 393.888 24.0976 396.286C24.2815 397.578 24.6494 398.869 25.2013 399.976C25.7531 401.083 26.4889 402.006 27.5925 402.744C28.1444 403.113 28.8801 403.482 29.6159 403.666C30.7196 403.85 31.8232 403.85 32.9269 404.219C34.0306 404.773 34.7663 405.695 35.5021 406.802C38.6292 412.522 39.7328 420.455 42.1241 426.543C42.6759 427.834 43.4117 429.31 44.8832 430.048C45.619 430.417 46.5387 430.417 47.2745 430.417C51.1373 430.417 68.7959 430.602 72.2908 430.233C73.0266 430.233 73.7624 430.048 74.4982 429.679C75.2339 429.31 75.7858 428.757 76.1537 428.019C76.7055 426.912 76.8894 425.436 76.8894 424.329C76.8894 422.484 76.5215 420.639 75.7858 418.979C75.05 417.503 73.9463 416.396 72.8427 415.473C71.5551 414.366 68.9799 412.706 67.5083 411.784C64.7492 409.754 61.99 407.725 59.7827 405.142C58.4951 403.481 57.3914 401.637 56.4717 399.792C55.7359 398.131 55.0001 396.286 54.6323 394.441C54.0804 392.597 53.8965 390.567 53.5286 388.722C52.6089 380.42 52.4249 371.749 52.6089 363.631C52.7928 357.359 53.1607 351.086 54.4483 344.813C55.9199 338.356 58.4951 332.084 60.8863 325.995C62.9097 321.383 66.5886 312.897 68.612 308.284C70.2675 304.779 72.1069 301.274 74.3142 297.953C77.4413 293.34 81.672 289.466 86.0866 286.145C93.6283 280.426 102.458 274.522 109.264 268.065C119.196 259.025 126.922 247.771 133.728 236.148C138.878 227.108 143.661 217.884 147.156 208.106C151.019 197.405 153.41 186.151 154.882 174.897" stroke="#F1F6FF" stroke-width="2.25" stroke-miterlimit="10" stroke-linecap="round" stroke-linejoin="round"/>
<path d="M88.4775 284.3C90.317 286.145 92.5243 288.175 94.7316 289.466C97.1229 291.127 100.618 292.971 103.009 294.632C104.481 295.554 105.768 296.661 106.504 298.322C106.688 298.875 106.872 299.613 107.056 300.167C107.608 303.487 107.608 307.546 108.527 310.867C108.895 312.343 109.447 314.003 110.551 315.295C111.287 316.033 112.574 316.586 113.494 316.033C114.23 315.664 114.781 314.741 114.965 314.003C116.069 311.052 116.253 307.546 117.173 304.41C117.357 303.672 117.541 303.118 118.092 302.565C118.276 302.196 118.644 301.827 119.196 301.643C119.748 301.458 120.3 301.274 120.852 301.274C121.587 301.274 122.323 301.274 123.059 301.458C124.714 301.643 126.738 302.012 128.393 302.196C130.049 302.381 131.704 302.196 133.36 302.012C134.831 301.827 137.223 301.458 138.694 301.643C139.062 301.643 139.43 301.643 139.614 301.827C139.798 301.827 140.166 302.012 140.35 302.196C140.534 302.381 140.718 302.75 140.901 303.118C141.085 303.672 141.269 304.041 141.453 304.594C142.189 307.731 142.925 311.421 144.212 314.188C144.764 315.11 145.316 316.217 146.42 316.771C146.788 316.955 147.34 316.955 147.707 316.771C148.627 316.402 148.995 315.664 149.363 314.741C150.834 311.421 151.018 307.362 151.938 304.041C152.306 303.118 152.49 302.196 153.042 301.274C153.41 300.72 153.961 300.167 154.697 299.798C155.065 299.613 155.433 299.429 155.617 299.244C157.089 298.506 159.296 297.399 160.767 296.661C167.757 292.971 173.827 287.621 179.346 282.087C181.185 280.242 183.209 278.212 184.864 276.183C185.968 275.076 187.071 273.231 188.175 272.124C189.095 271.202 190.014 270.464 191.486 270.095C192.406 269.91 193.325 269.91 194.429 270.095C196.085 270.279 197.556 270.648 199.212 271.202C209.145 274.338 219.629 279.688 229.562 282.64C233.609 283.931 237.84 284.854 242.071 284.854C248.141 285.038 254.027 283.193 259.729 280.98" stroke="#F1F6FF" stroke-width="2.25" stroke-miterlimit="10" stroke-linecap="round" stroke-linejoin="round"/>
<path d="M39.5488 416.949C49.2978 417.134 59.2308 415.658 68.244 411.968" stroke="#F1F6FF" stroke-width="2.25" stroke-miterlimit="10" stroke-linecap="round" stroke-linejoin="round"/>
<path d="M512.1 101.285C513.571 103.13 514.859 105.16 516.514 107.005C517.802 108.296 519.089 109.403 520.561 110.51C523.32 112.355 526.631 113.831 529.758 114.938C534.725 116.598 540.059 117.705 545.209 118.443C556.43 120.104 568.754 118.628 579.975 119.366C590.644 120.104 601.312 122.686 611.613 125.638C614.556 126.376 617.499 127.114 620.442 126.561C623.202 126.007 625.777 124.531 627.984 122.686" stroke="#F1F6FF" stroke-width="2.25" stroke-miterlimit="10" stroke-linecap="round" stroke-linejoin="round"/>
<path d="M368.624 206.814C367.521 215.854 366.785 225.263 367.705 234.303C368.073 238.547 368.808 242.605 370.464 246.664C371.384 248.878 372.487 251.092 373.959 252.937C375.062 254.413 376.35 256.258 377.454 257.918C378.189 259.025 378.741 260.317 379.109 261.608C379.661 264.006 379.477 266.774 379.477 269.172C378.741 279.319 377.27 290.389 378.189 300.536C378.373 302.565 378.557 304.594 378.925 306.624C379.477 309.391 380.765 314.188 381.5 316.771C381.868 318.431 382.42 320.276 382.604 322.121C382.788 323.781 382.788 325.442 382.972 326.918C382.972 330.239 382.788 333.928 383.524 337.065C384.26 340.201 385.179 343.522 385.547 346.843C386.099 351.271 386.099 355.698 386.099 360.126C385.915 372.303 384.628 384.663 382.236 396.655C381.868 399.054 380.397 404.957 380.213 407.171C380.213 407.909 380.029 408.647 380.029 409.201C380.029 409.939 380.213 410.861 380.765 411.599C380.949 412.153 381.317 412.522 381.684 412.891C382.052 413.26 382.42 413.628 382.788 413.997C383.156 414.366 383.708 414.551 384.076 414.735C384.628 414.92 385.179 414.92 385.731 414.735C387.203 414.551 389.042 413.997 390.514 413.628C390.698 413.628 391.066 413.444 391.249 413.444C391.617 413.444 392.169 413.444 392.537 413.813C392.905 414.182 393.273 414.551 393.457 415.104C393.825 415.842 394.009 416.58 394.377 417.318C395.296 420.27 396.4 423.775 397.688 426.543C398.239 427.65 398.975 429.126 400.263 429.679C400.999 430.048 402.102 430.048 402.838 430.233H426.935C427.119 430.233 427.302 430.233 427.486 430.233C427.854 430.233 428.038 430.233 428.406 430.048C428.774 429.864 428.958 429.495 429.142 429.126C429.51 428.203 429.694 427.096 429.878 426.174C430.062 424.513 430.062 422.669 429.878 421.008C429.694 420.086 429.51 419.163 428.958 418.241C428.406 417.134 427.67 416.211 426.935 415.473C424.359 412.891 421.232 410.492 418.105 408.463C416.45 407.356 413.875 405.695 412.403 404.588C411.299 403.666 410.012 402.559 409.276 401.268C408.356 399.976 407.988 398.316 407.62 396.84C406.333 391.674 405.965 385.955 405.413 380.605C404.493 368.059 403.942 354.96 405.597 342.415C405.965 339.648 406.701 336.88 407.437 334.113C408.172 331.899 409.46 329.132 410.012 326.918C410.931 324.15 411.483 321.383 411.851 318.431C412.955 311.052 414.426 300.72 416.266 293.709C418.289 285.961 420.497 278.028 424.175 271.017C425.279 269.172 426.383 267.143 427.67 265.482C429.878 262.715 432.821 259.394 434.844 256.442C439.259 250.539 442.57 243.897 445.329 237.071" stroke="#F1F6FF" stroke-width="2.25" stroke-miterlimit="10" stroke-linecap="round" stroke-linejoin="round"/>
<path d="M393.824 417.134C397.687 416.58 401.366 415.658 405.045 413.997C408.908 412.337 412.586 409.939 415.714 407.171" stroke="#F1F6FF" stroke-width="2.25" stroke-miterlimit="10" stroke-linecap="round" stroke-linejoin="round"/>
<path d="M136.303 231.905C146.052 230.245 156.353 229.507 165.918 232.274C170.148 233.565 174.195 235.41 178.058 237.624C187.439 243.159 199.028 253.49 207.673 260.501C213.559 265.298 219.813 269.726 226.619 273.231C231.218 275.445 236 277.29 240.967 278.397C253.659 281.349 267.087 280.611 279.963 278.581C297.621 275.629 318.959 268.434 336.617 266.036C342.136 265.298 347.838 265.113 353.356 265.667C361.45 266.22 371.015 268.619 379.108 270.279" stroke="#F1F6FF" stroke-width="2.25" stroke-miterlimit="10" stroke-linecap="round" stroke-linejoin="round"/>
<path d="M421.416 276.183C425.463 275.998 429.693 275.629 433.556 274.153C436.315 273.046 438.891 271.202 441.098 268.988C443.673 266.405 446.616 261.793 448.824 258.656C449.927 256.996 451.215 255.335 452.686 253.675C453.974 252.199 456.365 249.985 457.653 248.694C460.228 246.111 462.619 243.343 464.459 240.207C467.586 234.857 469.609 228.953 471.633 223.049C473.288 217.884 477.519 204.047 479.542 199.066C480.094 197.59 480.83 196.114 481.382 194.822C483.037 191.502 485.98 188.55 488.371 185.782C490.947 182.646 493.89 178.772 496.465 175.451C501.064 169.178 524.976 136.523 528.839 130.804C531.782 126.376 534.725 121.764 537.117 116.967" stroke="#F1F6FF" stroke-width="2.25" stroke-miterlimit="10" stroke-linecap="round" stroke-linejoin="round"/>
<path d="M530.31 48.8901C527.919 48.5211 525.528 47.4142 523.321 46.3072C521.481 45.2003 519.642 44.0933 518.354 42.4329C517.802 41.8794 517.434 41.1415 517.066 40.4035C516.699 39.6655 516.515 38.7431 516.515 37.8206L516.331 35.4223C515.963 32.6549 515.043 30.2565 513.939 27.6736C512.652 24.7218 510.628 20.8475 509.525 17.8956C508.973 16.4197 508.421 14.9438 508.053 13.4678C507.869 12.3609 507.685 11.254 508.053 10.147C508.237 9.59353 508.789 9.04006 509.341 8.67108C510.077 8.11761 511.18 7.74862 512.1 7.74862C513.755 7.56413 515.227 7.56413 516.882 7.93312C519.642 8.3021 522.401 9.22455 524.976 10.516C528.103 11.9919 530.862 14.0213 533.621 16.0507C535.093 17.1577 538.22 19.925 539.691 21.2165C540.979 22.3234 543.554 24.5373 544.842 25.8287C546.681 27.6736 548.521 29.5185 549.441 32.1014C550.36 34.6843 550.176 37.4516 549.624 40.219" stroke="#F1F6FF" stroke-width="2.25" stroke-miterlimit="10" stroke-linecap="round" stroke-linejoin="round"/>
<path d="M30.1676 129.328C28.1442 142.611 26.3048 156.817 25.7529 170.101C24.8332 191.686 24.8332 214.563 25.9369 236.148C26.3048 241.683 26.6727 247.771 27.4084 253.121C27.7763 256.627 29.0639 264.744 29.0639 268.25C29.2479 271.017 29.0639 273.969 28.3282 276.736C27.5924 279.873 26.4887 283.931 25.7529 287.068C25.3851 289.282 25.0172 291.496 25.0172 293.894C25.0172 300.536 26.6727 307.731 26.4887 314.372C26.4887 316.402 26.1208 318.431 25.3851 320.276C24.2814 323.412 22.442 326.733 20.9704 329.685C20.2346 331.346 19.4989 333.19 19.131 334.851C18.5791 337.249 18.2113 339.648 18.0273 342.046C17.8434 344.629 17.6594 348.872 17.1076 351.271C16.9236 351.64 16.9236 352.009 16.7397 352.377C16.3718 352.193 16.0039 352.009 15.82 351.64C15.0842 350.717 14.5324 349.426 13.9805 348.319C11.9572 343.153 11.7732 337.065 10.4856 331.715C10.3017 331.161 10.1177 330.423 9.74984 329.87C9.5659 329.685 9.19801 329.87 9.01407 329.87C8.64618 330.054 8.27829 330.054 7.72646 330.054C7.17463 329.685 6.80674 329.132 6.43886 328.394C5.70308 326.918 5.15125 325.073 4.78336 323.412C4.04759 319.907 4.04759 316.402 4.41548 312.896C4.96731 309.207 6.07097 305.517 7.17463 302.011C7.91041 299.982 9.74984 295.37 10.1177 293.34C10.1177 292.971 10.3017 292.602 10.3017 292.049C8.46224 291.496 8.09435 291.496 7.91041 291.496C7.54252 291.496 7.17463 291.496 6.80674 291.496C6.80674 291.496 6.6228 291.496 6.6228 291.311C6.6228 290.942 6.80674 290.389 6.80674 290.02C7.72646 287.252 10.1177 281.902 11.2214 279.319C12.6929 275.814 14.1645 272.124 15.0842 268.25C16.0039 265.113 16.5558 261.792 17.1076 258.656C19.4989 241.867 16.7397 218.622 15.82 201.464L15.4521 193.715C15.0842 183.753 14.3484 146.855 14.1645 137.63C14.1645 130.066 14.3484 122.502 15.82 115.122C17.4755 107.005 20.6025 99.2561 24.8332 92.2454C28.88 85.6038 33.8465 79.5156 39.7327 74.5343C45.8028 69.5531 52.9766 65.6787 60.7022 63.8338C67.1403 62.1734 73.9462 61.9889 80.5681 62.1734C116.253 64.0183 233.793 66.9702 271.134 67.5237C278.492 67.5237 286.769 67.3392 293.943 66.9702C299.461 66.6012 305.531 66.2322 310.866 65.4943C318.591 64.5718 334.043 61.62 341.768 60.3285C351.517 58.6681 361.45 57.7456 371.383 58.1146C381.5 58.2991 396.032 59.9595 406.148 60.882L408.356 61.0665L409.643 61.251H410.931H411.483H412.035H412.586C415.162 61.251 417.737 61.251 420.312 60.6975C423.255 60.144 426.014 59.4061 428.773 58.4836C444.041 53.6868 467.218 44.2778 482.301 38.9276C487.636 37.0827 495.545 34.6843 500.512 32.1014C504.742 29.8875 508.605 26.9357 512.284 23.9838" stroke="#F1F6FF" stroke-width="2.25" stroke-miterlimit="10" stroke-linecap="round" stroke-linejoin="round"/>
</g>
</svg>
